{
 "cells": [
  {
   "cell_type": "markdown",
   "metadata": {},
   "source": [
    "Introduction\n",
    "=======\n",
    "The purpose of this project is to use computer vision to analyze a standard 1v1 Super Smash Bros Melee match hosted on YouTube. The user will submit a YT videoId OCR to map each player's % damage over time. This data will be used to interpret the flow of the match graphically, exposing the effectiveness of each player's punish game."
   ]
  },
  {
   "cell_type": "markdown",
   "metadata": {},
   "source": [
    "1. User selects video, specifies match timerange and dimensions\n",
    "2. Use youtube-dl and ffmpeg to download the user video locally\n",
    "3. Crop player % hud from the video and and isolate the text to black and white for preprocessing\n",
    "4. Run tesseract or ocrad to get percents and time\n",
    "5. Compile time into json\n",
    "6. D3 graph json under youtube\n",
    "7. Make D3 graph youtube controls"
   ]
  },
  {
   "cell_type": "markdown",
   "metadata": {},
   "source": [
    "1. Downloading\n",
    "  * Youtube-dl obtains URL\n",
    "  * ffmpeg can \n",
    "2. Preprocessing\n",
    "  * Only capture Melee from video, cut black bars\n",
    "  * Crop to only percentage text\n",
    "  * Adjust colors/threshold to binarize text\n",
    "  * \n",
    "3. OCR"
   ]
  },
  {
   "cell_type": "code",
   "execution_count": 2,
   "metadata": {
    "collapsed": true
   },
   "outputs": [],
   "source": [
    "import sys\n",
    "import subprocess"
   ]
  },
  {
   "cell_type": "markdown",
   "metadata": {},
   "source": [
    "Obtaining Youtube Videos\n",
    "======\n",
    "We will be using the python library youtube-dl to download the video locally for preprocessing. The user will submit a YT videoId, the time range containing the video, and if necessary the coordinates to crop just the match. I believe it will be necessary to make the captured matches as identical in size and aspect ratio as possible. Videos from streams with extra non-melee content will need to be trimmed with help from the user."
   ]
  },
  {
   "cell_type": "code",
   "execution_count": 3,
   "metadata": {
    "collapsed": false
   },
   "outputs": [],
   "source": [
    "from IPython.display import YouTubeVideo\n",
    "\n",
    "# Full Screen Video\n",
    "easyVideo = \"xPJCiML28Ds\""
   ]
  },
  {
   "cell_type": "markdown",
   "metadata": {},
   "source": [
    "Save a section of a youtube clip (much faster)\n",
    "https://github.com/rg3/youtube-dl/issues/622\n",
    "start at 5s, 10s durationy\n",
    "```\n",
    "ffmpeg -ss 5 -i $(youtube-dl -f 22/best --get-url \"https://www.youtube.com/watch?v=xPJCiML28Ds\") -t 10 -c:v copy -c:a copy test.mp4\n",
    "\n",
    "```\n",
    "\n",
    "Count the number of frames in a video locally, use \n",
    "```\n",
    "ffprobe -select_streams v -show_streams test.mp4  2>/dev/null | grep nb_frames | sed -e 's/nb_frames=//'\n",
    "```\n"
   ]
  },
  {
   "cell_type": "code",
   "execution_count": 4,
   "metadata": {
    "collapsed": true
   },
   "outputs": [],
   "source": [
    "# User inputs video to use\n",
    "video = easyVideo #harderVideo\n",
    "videoURL = \"https://www.youtube.com/watch?v=\" + video \n",
    "startTime = str(3)\n",
    "duration = str(5)\n",
    "outputPath = 'original.mp4'\n",
    "modifiedPath = 'croppedfile.mp4'\n",
    "percentPath = 'percents.mp4'"
   ]
  },
  {
   "cell_type": "markdown",
   "metadata": {},
   "source": [
    "ffmpeg -ss $2 -i $STR -t $3 -c:v copy -c:a copy $4"
   ]
  },
  {
   "cell_type": "code",
   "execution_count": 5,
   "metadata": {
    "collapsed": false,
    "scrolled": true
   },
   "outputs": [
    {
     "name": "stderr",
     "output_type": "stream",
     "text": [
      "ffmpeg version 2.8.5 Copyright (c) 2000-2016 the FFmpeg developers\n",
      "  built with Apple LLVM version 7.0.2 (clang-700.1.81)\n",
      "  configuration: --prefix=/usr/local/Cellar/ffmpeg/2.8.5 --enable-shared --enable-pthreads --enable-gpl --enable-version3 --enable-hardcoded-tables --enable-avresample --cc=clang --host-cflags= --host-ldflags= --enable-opencl --enable-libx264 --enable-libmp3lame --enable-libvo-aacenc --enable-libxvid --enable-libfreetype --enable-libtheora --enable-libvorbis --enable-libvpx --enable-librtmp --enable-libopencore-amrnb --enable-libopencore-amrwb --enable-libass --enable-ffplay --enable-libspeex --enable-libschroedinger --enable-libfdk-aac --enable-libopus --enable-frei0r --enable-libopenjpeg --disable-decoder=jpeg2000 --extra-cflags=-I/usr/local/Cellar/openjpeg/1.5.2_1/include/openjpeg-1.5 --enable-nonfree --enable-vda\n",
      "  libavutil      54. 31.100 / 54. 31.100\n",
      "  libavcodec     56. 60.100 / 56. 60.100\n",
      "  libavformat    56. 40.101 / 56. 40.101\n",
      "  libavdevice    56.  4.100 / 56.  4.100\n",
      "  libavfilter     5. 40.101 /  5. 40.101\n",
      "  libavresample   2.  1.  0 /  2.  1.  0\n",
      "  libswscale      3.  1.101 /  3.  1.101\n",
      "  libswresample   1.  2.101 /  1.  2.101\n",
      "  libpostproc    53.  3.100 / 53.  3.100\n",
      "Input #0, mov,mp4,m4a,3gp,3g2,mj2, from 'https://r6---sn-hp57knle.googlevideo.com/videoplayback?nh=IgpwcjAxLm1pYTA0KhQyNjEwOjE4OjEwZTo0MDAwOjozMQ&initcwndbps=1407500&ratebypass=yes&signature=1465DDB1CD2E43B5469C6EEE4D7DB45CF4855C42.827DAAD2D01978453F3362E533D038B4671C5AAD&sver=3&requiressl=yes&pl=32&source=youtube&mime=video%2Fmp4&itag=18&expire=1454245404&fexp=9407157%2C9416126%2C9418203%2C9419470%2C9420452%2C9420540%2C9422596%2C9423661%2C9423662%2C9425517%2C9426221%2C9426724%2C9426905%2C9427240%2C9427884&sparams=dur%2Cid%2Cinitcwndbps%2Cip%2Cipbits%2Citag%2Clmt%2Cmime%2Cmm%2Cmn%2Cms%2Cmv%2Cnh%2Cpcm2%2Cpl%2Cratebypass%2Crequiressl%2Csource%2Cupn%2Cexpire&mn=sn-hp57knle&mm=31&dur=132.260&lmt=1342542390156402&mv=m&mt=1454223767&ms=au&key=yt6&ip=2606%3Aa000%3Aae82%3A7500%3Ad1a3%3Aceb9%3Af981%3A210e&ipbits=0&pcm2=yes&upn=3meFec3F6cw&id=o-ALA6JIrxYB4R8SQXRpqpWoXhD5VDINQA97LcWLkKA9C_':\n",
      "  Metadata:\n",
      "    major_brand     : mp42\n",
      "    minor_version   : 0\n",
      "    compatible_brands: isommp42\n",
      "    creation_time   : 2012-07-16 16:26:28\n",
      "  Duration: 00:02:12.10, start: 0.000000, bitrate: 739 kb/s\n",
      "    Stream #0:0(und): Video: h264 (Constrained Baseline) (avc1 / 0x31637661), yuv420p, 640x360, 640 kb/s, 29.97 fps, 29.97 tbr, 60k tbn, 59.94 tbc (default)\n",
      "    Metadata:\n",
      "      creation_time   : 1970-01-01 00:00:00\n",
      "      handler_name    : VideoHandler\n",
      "    Stream #0:1(und): Audio: aac (LC) (mp4a / 0x6134706D), 44100 Hz, stereo, fltp, 96 kb/s (default)\n",
      "    Metadata:\n",
      "      creation_time   : 2012-07-16 16:26:28\n",
      "      handler_name    : IsoMedia File Produced by Google, 5-11-2011\n",
      "[mp4 @ 0x7fa832829600] Codec for stream 0 does not use global headers but container format requires global headers\n",
      "[mp4 @ 0x7fa832829600] Codec for stream 1 does not use global headers but container format requires global headers\n",
      "Output #0, mp4, to 'original.mp4':\n",
      "  Metadata:\n",
      "    major_brand     : mp42\n",
      "    minor_version   : 0\n",
      "    compatible_brands: isommp42\n",
      "    encoder         : Lavf56.40.101\n",
      "    Stream #0:0(und): Video: h264 ([33][0][0][0] / 0x0021), yuv420p, 640x360, q=2-31, 640 kb/s, 29.97 fps, 29.97 tbr, 60k tbn, 60k tbc (default)\n",
      "    Metadata:\n",
      "      creation_time   : 1970-01-01 00:00:00\n",
      "      handler_name    : VideoHandler\n",
      "    Stream #0:1(und): Audio: aac ([64][0][0][0] / 0x0040), 44100 Hz, stereo, 96 kb/s (default)\n",
      "    Metadata:\n",
      "      creation_time   : 2012-07-16 16:26:28\n",
      "      handler_name    : IsoMedia File Produced by Google, 5-11-2011\n",
      "Stream mapping:\n",
      "  Stream #0:0 -> #0:0 (copy)\n",
      "  Stream #0:1 -> #0:1 (copy)\n",
      "Press [q] to stop, [?] for help\n",
      "frame=   19 fps=0.0 q=-1.0 size=      54kB time=-00:00:00.39 bitrate=N/A    \r",
      "frame=  180 fps=0.0 q=-1.0 Lsize=     594kB time=00:00:05.01 bitrate= 971.0kbits/s    \n",
      "video:517kB audio:71kB subtitle:0kB other streams:0kB global headers:0kB muxing overhead: 1.060809%\n"
     ]
    }
   ],
   "source": [
    "%%bash -s '$videoURL' '$startTime' '$duration' '$outputPath' \n",
    "STR=$(youtube-dl -f 22/best --get-url $1)\n",
    "ffmpeg -y -ss $2 -i $STR -t $3 -c:v copy -c:a copy $4 \n"
   ]
  },
  {
   "cell_type": "code",
   "execution_count": 6,
   "metadata": {
    "collapsed": false
   },
   "outputs": [
    {
     "name": "stderr",
     "output_type": "stream",
     "text": [
      "ffmpeg version 2.8.5 Copyright (c) 2000-2016 the FFmpeg developers\n",
      "  built with Apple LLVM version 7.0.2 (clang-700.1.81)\n",
      "  configuration: --prefix=/usr/local/Cellar/ffmpeg/2.8.5 --enable-shared --enable-pthreads --enable-gpl --enable-version3 --enable-hardcoded-tables --enable-avresample --cc=clang --host-cflags= --host-ldflags= --enable-opencl --enable-libx264 --enable-libmp3lame --enable-libvo-aacenc --enable-libxvid --enable-libfreetype --enable-libtheora --enable-libvorbis --enable-libvpx --enable-librtmp --enable-libopencore-amrnb --enable-libopencore-amrwb --enable-libass --enable-ffplay --enable-libspeex --enable-libschroedinger --enable-libfdk-aac --enable-libopus --enable-frei0r --enable-libopenjpeg --disable-decoder=jpeg2000 --extra-cflags=-I/usr/local/Cellar/openjpeg/1.5.2_1/include/openjpeg-1.5 --enable-nonfree --enable-vda\n",
      "  libavutil      54. 31.100 / 54. 31.100\n",
      "  libavcodec     56. 60.100 / 56. 60.100\n",
      "  libavformat    56. 40.101 / 56. 40.101\n",
      "  libavdevice    56.  4.100 / 56.  4.100\n",
      "  libavfilter     5. 40.101 /  5. 40.101\n",
      "  libavresample   2.  1.  0 /  2.  1.  0\n",
      "  libswscale      3.  1.101 /  3.  1.101\n",
      "  libswresample   1.  2.101 /  1.  2.101\n",
      "  libpostproc    53.  3.100 / 53.  3.100\n",
      "Input #0, mov,mp4,m4a,3gp,3g2,mj2, from 'original.mp4':\n",
      "  Metadata:\n",
      "    major_brand     : isom\n",
      "    minor_version   : 512\n",
      "    compatible_brands: isomiso2avc1mp41\n",
      "    encoder         : Lavf56.40.101\n",
      "  Duration: 00:00:06.01, start: -1.003084, bitrate: 809 kb/s\n",
      "    Stream #0:0(und): Video: h264 (Constrained Baseline) (avc1 / 0x31637661), yuv420p, 640x360, 705 kb/s, 29.97 fps, 29.97 tbr, 60k tbn, 59.94 tbc (default)\n",
      "    Metadata:\n",
      "      handler_name    : VideoHandler\n",
      "    Stream #0:1(und): Audio: aac (LC) (mp4a / 0x6134706D), 44100 Hz, stereo, fltp, 96 kb/s (default)\n",
      "    Metadata:\n",
      "      handler_name    : SoundHandler\n",
      "[libx264 @ 0x7ff7cb800c00] using cpu capabilities: MMX2 SSE2Fast SSSE3 SSE4.2 AVX\n",
      "[libx264 @ 0x7ff7cb800c00] profile High, level 3.0\n",
      "[libx264 @ 0x7ff7cb800c00] 264 - core 148 r2601 a0cd7d3 - H.264/MPEG-4 AVC codec - Copyleft 2003-2015 - http://www.videolan.org/x264.html - options: cabac=1 ref=3 deblock=1:0:0 analyse=0x3:0x113 me=hex subme=7 psy=1 psy_rd=1.00:0.00 mixed_ref=1 me_range=16 chroma_me=1 trellis=1 8x8dct=1 cqm=0 deadzone=21,11 fast_pskip=1 chroma_qp_offset=-2 threads=6 lookahead_threads=1 sliced_threads=0 nr=0 decimate=1 interlaced=0 bluray_compat=0 constrained_intra=0 bframes=3 b_pyramid=2 b_adapt=1 b_bias=0 direct=1 weightb=1 open_gop=0 weightp=2 keyint=250 keyint_min=25 scenecut=40 intra_refresh=0 rc_lookahead=40 rc=crf mbtree=1 crf=23.0 qcomp=0.60 qpmin=0 qpmax=69 qpstep=4 ip_ratio=1.40 aq=1:1.00\n",
      "Output #0, mp4, to 'croppedfile.mp4':\n",
      "  Metadata:\n",
      "    major_brand     : isom\n",
      "    minor_version   : 512\n",
      "    compatible_brands: isomiso2avc1mp41\n",
      "    encoder         : Lavf56.40.101\n",
      "    Stream #0:0(und): Video: h264 (libx264) ([33][0][0][0] / 0x0021), yuv420p, 480x360, q=-1--1, 29.97 fps, 30k tbn, 29.97 tbc (default)\n",
      "    Metadata:\n",
      "      handler_name    : VideoHandler\n",
      "      encoder         : Lavc56.60.100 libx264\n",
      "    Stream #0:1(und): Audio: aac (libfdk_aac) ([64][0][0][0] / 0x0040), 44100 Hz, stereo, s16, 128 kb/s (default)\n",
      "    Metadata:\n",
      "      handler_name    : SoundHandler\n",
      "      encoder         : Lavc56.60.100 libfdk_aac\n",
      "Stream mapping:\n",
      "  Stream #0:0 -> #0:0 (h264 (native) -> h264 (libx264))\n",
      "  Stream #0:1 -> #0:1 (aac (native) -> aac (libfdk_aac))\n",
      "Press [q] to stop, [?] for help\n",
      "frame=   92 fps=0.0 q=29.0 size=     167kB time=00:00:03.15 bitrate= 433.3kbits/s    \r",
      "frame=  136 fps=134 q=29.0 size=     338kB time=00:00:04.62 bitrate= 599.2kbits/s    \r",
      "frame=  180 fps= 99 q=-1.0 Lsize=     671kB time=00:00:06.01 bitrate= 914.0kbits/s    \n",
      "video:569kB audio:95kB subtitle:0kB other streams:0kB global headers:0kB muxing overhead: 1.016437%\n",
      "[libx264 @ 0x7ff7cb800c00] frame I:1     Avg QP:26.43  size:  9593\n",
      "[libx264 @ 0x7ff7cb800c00] frame P:154   Avg QP:24.21  size:  3443\n",
      "[libx264 @ 0x7ff7cb800c00] frame B:25    Avg QP:27.10  size:  1695\n",
      "[libx264 @ 0x7ff7cb800c00] consecutive B-frames: 72.2% 27.8%  0.0%  0.0%\n",
      "[libx264 @ 0x7ff7cb800c00] mb I  I16..4: 15.5% 36.8% 47.7%\n",
      "[libx264 @ 0x7ff7cb800c00] mb P  I16..4:  6.0%  7.0%  6.3%  P16..4: 20.1% 12.6%  4.4%  0.0%  0.0%    skip:43.6%\n",
      "[libx264 @ 0x7ff7cb800c00] mb B  I16..4:  1.0%  0.4%  2.5%  B16..8: 21.9%  9.8%  1.8%  direct: 5.9%  skip:56.7%  L0:61.8% L1:31.4% BI: 6.9%\n",
      "[libx264 @ 0x7ff7cb800c00] 8x8 transform intra:35.6% inter:23.8%\n",
      "[libx264 @ 0x7ff7cb800c00] coded y,uvDC,uvAC intra: 37.1% 55.9% 19.0% inter: 12.7% 20.2% 1.7%\n",
      "[libx264 @ 0x7ff7cb800c00] i16 v,h,dc,p: 52% 41%  5%  1%\n",
      "[libx264 @ 0x7ff7cb800c00] i8 v,h,dc,ddl,ddr,vr,hd,vl,hu: 11% 10% 72%  1%  1%  1%  1%  1%  2%\n",
      "[libx264 @ 0x7ff7cb800c00] i4 v,h,dc,ddl,ddr,vr,hd,vl,hu: 14% 37% 20%  5%  5%  4%  6%  4%  5%\n",
      "[libx264 @ 0x7ff7cb800c00] i8c dc,h,v,p: 46% 38% 12%  4%\n",
      "[libx264 @ 0x7ff7cb800c00] Weighted P-Frames: Y:0.6% UV:0.0%\n",
      "[libx264 @ 0x7ff7cb800c00] ref P L0: 82.7%  8.2%  6.0%  3.0%  0.1%\n",
      "[libx264 @ 0x7ff7cb800c00] ref B L0: 95.1%  4.9%\n",
      "[libx264 @ 0x7ff7cb800c00] kb/s:775.41\n"
     ]
    }
   ],
   "source": [
    "%%bash -s '$outputPath' '$modifiedPath' \n",
    "# temporarily hardcoding crop of black bars, should be auto/user prevented.  4:3 on crt's\n",
    " $2 "
   ]
  },
  {
   "cell_type": "code",
   "execution_count": 7,
   "metadata": {
    "collapsed": false
   },
   "outputs": [
    {
     "name": "stderr",
     "output_type": "stream",
     "text": [
      "ffmpeg version 2.8.5 Copyright (c) 2000-2016 the FFmpeg developers\n",
      "  built with Apple LLVM version 7.0.2 (clang-700.1.81)\n",
      "  configuration: --prefix=/usr/local/Cellar/ffmpeg/2.8.5 --enable-shared --enable-pthreads --enable-gpl --enable-version3 --enable-hardcoded-tables --enable-avresample --cc=clang --host-cflags= --host-ldflags= --enable-opencl --enable-libx264 --enable-libmp3lame --enable-libvo-aacenc --enable-libxvid --enable-libfreetype --enable-libtheora --enable-libvorbis --enable-libvpx --enable-librtmp --enable-libopencore-amrnb --enable-libopencore-amrwb --enable-libass --enable-ffplay --enable-libspeex --enable-libschroedinger --enable-libfdk-aac --enable-libopus --enable-frei0r --enable-libopenjpeg --disable-decoder=jpeg2000 --extra-cflags=-I/usr/local/Cellar/openjpeg/1.5.2_1/include/openjpeg-1.5 --enable-nonfree --enable-vda\n",
      "  libavutil      54. 31.100 / 54. 31.100\n",
      "  libavcodec     56. 60.100 / 56. 60.100\n",
      "  libavformat    56. 40.101 / 56. 40.101\n",
      "  libavdevice    56.  4.100 / 56.  4.100\n",
      "  libavfilter     5. 40.101 /  5. 40.101\n",
      "  libavresample   2.  1.  0 /  2.  1.  0\n",
      "  libswscale      3.  1.101 /  3.  1.101\n",
      "  libswresample   1.  2.101 /  1.  2.101\n",
      "  libpostproc    53.  3.100 / 53.  3.100\n",
      "Input #0, mov,mp4,m4a,3gp,3g2,mj2, from 'croppedfile.mp4':\n",
      "  Metadata:\n",
      "    major_brand     : isom\n",
      "    minor_version   : 512\n",
      "    compatible_brands: isomiso2avc1mp41\n",
      "    encoder         : Lavf56.40.101\n",
      "  Duration: 00:00:06.06, start: 0.046440, bitrate: 906 kb/s\n",
      "    Stream #0:0(und): Video: h264 (High) (avc1 / 0x31637661), yuv420p, 480x360, 776 kb/s, 29.97 fps, 29.97 tbr, 30k tbn, 59.94 tbc (default)\n",
      "    Metadata:\n",
      "      handler_name    : VideoHandler\n",
      "    Stream #0:1(und): Audio: aac (LC) (mp4a / 0x6134706D), 44100 Hz, stereo, fltp, 128 kb/s (default)\n",
      "    Metadata:\n",
      "      handler_name    : SoundHandler\n",
      "[libx264 @ 0x7fee7400ee00] using cpu capabilities: MMX2 SSE2Fast SSSE3 SSE4.2 AVX\n",
      "[libx264 @ 0x7fee7400ee00] profile High, level 1.0\n",
      "[libx264 @ 0x7fee7400ee00] 264 - core 148 r2601 a0cd7d3 - H.264/MPEG-4 AVC codec - Copyleft 2003-2015 - http://www.videolan.org/x264.html - options: cabac=1 ref=3 deblock=1:0:0 analyse=0x3:0x113 me=hex subme=7 psy=1 psy_rd=1.00:0.00 mixed_ref=1 me_range=16 chroma_me=1 trellis=1 8x8dct=1 cqm=0 deadzone=21,11 fast_pskip=1 chroma_qp_offset=-2 threads=1 lookahead_threads=1 sliced_threads=0 nr=0 decimate=1 interlaced=0 bluray_compat=0 constrained_intra=0 bframes=3 b_pyramid=2 b_adapt=1 b_bias=0 direct=1 weightb=1 open_gop=0 weightp=2 keyint=250 keyint_min=25 scenecut=40 intra_refresh=0 rc_lookahead=40 rc=crf mbtree=1 crf=23.0 qcomp=0.60 qpmin=0 qpmax=69 qpstep=4 ip_ratio=1.40 aq=1:1.00\n",
      "Output #0, mp4, to 'percents.mp4':\n",
      "  Metadata:\n",
      "    major_brand     : isom\n",
      "    minor_version   : 512\n",
      "    compatible_brands: isomiso2avc1mp41\n",
      "    encoder         : Lavf56.40.101\n",
      "    Stream #0:0(und): Video: h264 (libx264) ([33][0][0][0] / 0x0021), yuv420p, 80x40, q=-1--1, 29.97 fps, 30k tbn, 29.97 tbc (default)\n",
      "    Metadata:\n",
      "      handler_name    : VideoHandler\n",
      "      encoder         : Lavc56.60.100 libx264\n",
      "    Stream #0:1(und): Audio: aac (libfdk_aac) ([64][0][0][0] / 0x0040), 44100 Hz, stereo, s16, 128 kb/s (default)\n",
      "    Metadata:\n",
      "      handler_name    : SoundHandler\n",
      "      encoder         : Lavc56.60.100 libfdk_aac\n",
      "Stream mapping:\n",
      "  Stream #0:0 -> #0:0 (h264 (native) -> h264 (libx264))\n",
      "  Stream #0:1 -> #0:1 (aac (native) -> aac (libfdk_aac))\n",
      "Press [q] to stop, [?] for help\n",
      "frame=  181 fps=0.0 q=29.0 Lsize=     125kB time=00:00:06.06 bitrate= 168.4kbits/s dup=1 drop=0    \n",
      "video:21kB audio:96kB subtitle:0kB other streams:0kB global headers:0kB muxing overhead: 6.319238%\n",
      "[libx264 @ 0x7fee7400ee00] frame I:2     Avg QP:25.13  size:   348\n",
      "[libx264 @ 0x7fee7400ee00] frame P:91    Avg QP:26.60  size:   186\n",
      "[libx264 @ 0x7fee7400ee00] frame B:88    Avg QP:22.96  size:    40\n",
      "[libx264 @ 0x7fee7400ee00] consecutive B-frames: 27.6% 21.0%  5.0% 46.4%\n",
      "[libx264 @ 0x7fee7400ee00] mb I  I16..4:  6.7% 30.0% 63.3%\n",
      "[libx264 @ 0x7fee7400ee00] mb P  I16..4:  1.4%  9.3% 13.9%  P16..4: 27.0% 15.3%  7.0%  0.0%  0.0%    skip:26.1%\n",
      "[libx264 @ 0x7fee7400ee00] mb B  I16..4:  0.2%  0.8%  1.0%  B16..8: 10.6%  5.2%  1.8%  direct: 2.3%  skip:78.2%  L0:44.6% L1:44.7% BI:10.8%\n",
      "[libx264 @ 0x7fee7400ee00] 8x8 transform intra:37.3% inter:41.6%\n",
      "[libx264 @ 0x7fee7400ee00] coded y,uvDC,uvAC intra: 74.7% 85.9% 45.8% inter: 19.1% 25.7% 3.8%\n",
      "[libx264 @ 0x7fee7400ee00] i16 v,h,dc,p: 22% 57%  9% 13%\n",
      "[libx264 @ 0x7fee7400ee00] i8 v,h,dc,ddl,ddr,vr,hd,vl,hu: 33% 24% 19%  2%  2%  6%  5%  2%  7%\n",
      "[libx264 @ 0x7fee7400ee00] i4 v,h,dc,ddl,ddr,vr,hd,vl,hu: 29% 33% 16%  3%  3%  3%  5%  2%  4%\n",
      "[libx264 @ 0x7fee7400ee00] i8c dc,h,v,p: 51% 39%  6%  4%\n",
      "[libx264 @ 0x7fee7400ee00] Weighted P-Frames: Y:2.2% UV:0.0%\n",
      "[libx264 @ 0x7fee7400ee00] ref P L0: 71.7% 12.8% 10.3%  5.2%  0.1%\n",
      "[libx264 @ 0x7fee7400ee00] ref B L0: 88.7% 11.2%  0.2%\n",
      "[libx264 @ 0x7fee7400ee00] ref B L1: 98.6%  1.4%\n",
      "[libx264 @ 0x7fee7400ee00] kb/s:28.02\n"
     ]
    }
   ],
   "source": [
    "%%bash -s '$modifiedPath' '$percentPath' \n",
    "# Take 4:3 or w/e melee video and capture text reigon\n",
    "#ffmpeg -y -i $1 -vf crop=iw-20:30:10:ih-55,crop=iw/2:ih:0:0,edgedetect=low=0.1:high=0.4 $2\n",
    "ffmpeg -y -i $1 -vf crop=iw/6:40:17:ih-60 $2\n"
   ]
  },
  {
   "cell_type": "code",
   "execution_count": 8,
   "metadata": {
    "collapsed": false
   },
   "outputs": [
    {
     "data": {
      "text/html": [
       "\n",
       "<video>\n",
       "  <source src=\"percents.mp4\" type=\"video/mp4\">\n",
       "</video>\n"
      ],
      "text/plain": [
       "<IPython.core.display.HTML object>"
      ]
     },
     "execution_count": 8,
     "metadata": {},
     "output_type": "execute_result"
    }
   ],
   "source": [
    "from IPython.display import HTML\n",
    "HTML(\"\"\"\n",
    "<video>\n",
    "  <source src=\"percents.mp4\" type=\"video/mp4\">\n",
    "</video>\n",
    "\"\"\")"
   ]
  },
  {
   "cell_type": "code",
   "execution_count": 9,
   "metadata": {
    "collapsed": false
   },
   "outputs": [
    {
     "name": "stderr",
     "output_type": "stream",
     "text": [
      "ffmpeg version 2.8.5 Copyright (c) 2000-2016 the FFmpeg developers\n",
      "  built with Apple LLVM version 7.0.2 (clang-700.1.81)\n",
      "  configuration: --prefix=/usr/local/Cellar/ffmpeg/2.8.5 --enable-shared --enable-pthreads --enable-gpl --enable-version3 --enable-hardcoded-tables --enable-avresample --cc=clang --host-cflags= --host-ldflags= --enable-opencl --enable-libx264 --enable-libmp3lame --enable-libvo-aacenc --enable-libxvid --enable-libfreetype --enable-libtheora --enable-libvorbis --enable-libvpx --enable-librtmp --enable-libopencore-amrnb --enable-libopencore-amrwb --enable-libass --enable-ffplay --enable-libspeex --enable-libschroedinger --enable-libfdk-aac --enable-libopus --enable-frei0r --enable-libopenjpeg --disable-decoder=jpeg2000 --extra-cflags=-I/usr/local/Cellar/openjpeg/1.5.2_1/include/openjpeg-1.5 --enable-nonfree --enable-vda\n",
      "  libavutil      54. 31.100 / 54. 31.100\n",
      "  libavcodec     56. 60.100 / 56. 60.100\n",
      "  libavformat    56. 40.101 / 56. 40.101\n",
      "  libavdevice    56.  4.100 / 56.  4.100\n",
      "  libavfilter     5. 40.101 /  5. 40.101\n",
      "  libavresample   2.  1.  0 /  2.  1.  0\n",
      "  libswscale      3.  1.101 /  3.  1.101\n",
      "  libswresample   1.  2.101 /  1.  2.101\n",
      "  libpostproc    53.  3.100 / 53.  3.100\n",
      "Input #0, mov,mp4,m4a,3gp,3g2,mj2, from 'percents.mp4':\n",
      "  Metadata:\n",
      "    major_brand     : isom\n",
      "    minor_version   : 512\n",
      "    compatible_brands: isomiso2avc1mp41\n",
      "    encoder         : Lavf56.40.101\n",
      "  Duration: 00:00:06.11, start: 0.046440, bitrate: 167 kb/s\n",
      "    Stream #0:0(und): Video: h264 (High) (avc1 / 0x31637661), yuv420p, 80x40, 28 kb/s, 29.97 fps, 29.97 tbr, 30k tbn, 59.94 tbc (default)\n",
      "    Metadata:\n",
      "      handler_name    : VideoHandler\n",
      "    Stream #0:1(und): Audio: aac (LC) (mp4a / 0x6134706D), 44100 Hz, stereo, fltp, 128 kb/s (default)\n",
      "    Metadata:\n",
      "      handler_name    : SoundHandler\n",
      "[swscaler @ 0x7fa671815e00] deprecated pixel format used, make sure you did set range correctly\n",
      "Output #0, image2, to 'percent.jpg':\n",
      "  Metadata:\n",
      "    major_brand     : isom\n",
      "    minor_version   : 512\n",
      "    compatible_brands: isomiso2avc1mp41\n",
      "    encoder         : Lavf56.40.101\n",
      "    Stream #0:0(und): Video: mjpeg, yuvj420p(pc), 80x40, q=2-31, 200 kb/s, 29.97 fps, 29.97 tbn, 29.97 tbc (default)\n",
      "    Metadata:\n",
      "      handler_name    : VideoHandler\n",
      "      encoder         : Lavc56.60.100 mjpeg\n",
      "Stream mapping:\n",
      "  Stream #0:0 -> #0:0 (h264 (native) -> mjpeg (native))\n",
      "Press [q] to stop, [?] for help\n",
      "frame=    0 fps=0.0 q=0.0 Lsize=N/A time=00:00:00.00 bitrate=N/A    \n",
      "video:0kB audio:0kB subtitle:0kB other streams:0kB global headers:0kB muxing overhead: unknown\n",
      "Output file is empty, nothing was encoded (check -ss / -t / -frames parameters if used)\n",
      "ffmpeg version 2.8.5 Copyright (c) 2000-2016 the FFmpeg developers\n",
      "  built with Apple LLVM version 7.0.2 (clang-700.1.81)\n",
      "  configuration: --prefix=/usr/local/Cellar/ffmpeg/2.8.5 --enable-shared --enable-pthreads --enable-gpl --enable-version3 --enable-hardcoded-tables --enable-avresample --cc=clang --host-cflags= --host-ldflags= --enable-opencl --enable-libx264 --enable-libmp3lame --enable-libvo-aacenc --enable-libxvid --enable-libfreetype --enable-libtheora --enable-libvorbis --enable-libvpx --enable-librtmp --enable-libopencore-amrnb --enable-libopencore-amrwb --enable-libass --enable-ffplay --enable-libspeex --enable-libschroedinger --enable-libfdk-aac --enable-libopus --enable-frei0r --enable-libopenjpeg --disable-decoder=jpeg2000 --extra-cflags=-I/usr/local/Cellar/openjpeg/1.5.2_1/include/openjpeg-1.5 --enable-nonfree --enable-vda\n",
      "  libavutil      54. 31.100 / 54. 31.100\n",
      "  libavcodec     56. 60.100 / 56. 60.100\n",
      "  libavformat    56. 40.101 / 56. 40.101\n",
      "  libavdevice    56.  4.100 / 56.  4.100\n",
      "  libavfilter     5. 40.101 /  5. 40.101\n",
      "  libavresample   2.  1.  0 /  2.  1.  0\n",
      "  libswscale      3.  1.101 /  3.  1.101\n",
      "  libswresample   1.  2.101 /  1.  2.101\n",
      "  libpostproc    53.  3.100 / 53.  3.100\n",
      "Input #0, mov,mp4,m4a,3gp,3g2,mj2, from 'percents.mp4':\n",
      "  Metadata:\n",
      "    major_brand     : isom\n",
      "    minor_version   : 512\n",
      "    compatible_brands: isomiso2avc1mp41\n",
      "    encoder         : Lavf56.40.101\n",
      "  Duration: 00:00:06.11, start: 0.046440, bitrate: 167 kb/s\n",
      "    Stream #0:0(und): Video: h264 (High) (avc1 / 0x31637661), yuv420p, 80x40, 28 kb/s, 29.97 fps, 29.97 tbr, 30k tbn, 59.94 tbc (default)\n",
      "    Metadata:\n",
      "      handler_name    : VideoHandler\n",
      "    Stream #0:1(und): Audio: aac (LC) (mp4a / 0x6134706D), 44100 Hz, stereo, fltp, 128 kb/s (default)\n",
      "    Metadata:\n",
      "      handler_name    : SoundHandler\n",
      "[swscaler @ 0x7fe11c80c800] deprecated pixel format used, make sure you did set range correctly\n",
      "Output #0, image2, to 'percent2.jpg':\n",
      "  Metadata:\n",
      "    major_brand     : isom\n",
      "    minor_version   : 512\n",
      "    compatible_brands: isomiso2avc1mp41\n",
      "    encoder         : Lavf56.40.101\n",
      "    Stream #0:0(und): Video: mjpeg, yuvj420p(pc), 80x40, q=2-31, 200 kb/s, 29.97 fps, 29.97 tbn, 29.97 tbc (default)\n",
      "    Metadata:\n",
      "      handler_name    : VideoHandler\n",
      "      encoder         : Lavc56.60.100 mjpeg\n",
      "Stream mapping:\n",
      "  Stream #0:0 -> #0:0 (h264 (native) -> mjpeg (native))\n",
      "Press [q] to stop, [?] for help\n",
      "frame=    0 fps=0.0 q=0.0 Lsize=N/A time=00:00:00.00 bitrate=N/A    \n",
      "video:0kB audio:0kB subtitle:0kB other streams:0kB global headers:0kB muxing overhead: unknown\n",
      "Output file is empty, nothing was encoded (check -ss / -t / -frames parameters if used)\n"
     ]
    }
   ],
   "source": [
    "%%bash \n",
    "#ffmpeg -y -ss 2.5 -i percents.mp4 select='gt(scene\\,0.9)' -vsync 0 -an keyframes%03d.jpg\n",
    "\n",
    "ffmpeg -y -ss 6.7 -i percents.mp4 -vframes 1 -q:v 2 percent.jpg\n",
    "\n",
    "ffmpeg -y -ss 8 -i percents.mp4 -vframes 1 -q:v 2 percent2.jpg\n"
   ]
  },
  {
   "cell_type": "code",
   "execution_count": 10,
   "metadata": {
    "collapsed": false
   },
   "outputs": [
    {
     "name": "stdout",
     "output_type": "stream",
     "text": [
      "  11\n",
      "\n"
     ]
    },
    {
     "name": "stderr",
     "output_type": "stream",
     "text": [
      "Warning in pixReadMemJpeg: work-around: writing to a temp file\n"
     ]
    }
   ],
   "source": [
    "%%bash \n",
    "tesseract percent.jpg stdout -l eng digits"
   ]
  },
  {
   "cell_type": "code",
   "execution_count": 44,
   "metadata": {
    "collapsed": true
   },
   "outputs": [],
   "source": [
    "import cv2\n",
    "import numpy as np\n",
    "import subprocess\n",
    "from PIL import Image#, ImageOps, ImageFilter\n",
    "def binarize(image):\n",
    "    return cv2.threshold(image, 127, 255, cv2.THRESH_BINARY_INV)[1]\n",
    "\n",
    "# Find the active chord for each frame\n",
    "def vidcap_to_frame_chords(vidcap, video_fps, nb_frames = -1):\n",
    "    if nb_frames == -1:\n",
    "        nb_frames = int(vidcap.get(cv2.cv.CV_CAP_PROP_FRAME_COUNT))\n",
    "    frame_chords = []\n",
    "    final_frame = int(nb_frames - REMOVE_FINAL * video_fps)\n",
    "    for i in range(final_frame - 1):\n",
    "        success,image = vidcap.read()\n",
    "        frame_chords.append(get_active_chord(image))\n",
    "    return frame_chords"
   ]
  },
  {
   "cell_type": "code",
   "execution_count": 45,
   "metadata": {
    "collapsed": false
   },
   "outputs": [],
   "source": [
    "vidcap = cv2.VideoCapture(\"percents.mp4\")\n",
    "video_fps = vidcap.get(cv2.cv.CV_CAP_PROP_FPS)\n",
    "video_nb_frames = vidcap.get(cv2.cv.CV_CAP_PROP_FRAME_COUNT)"
   ]
  },
  {
   "cell_type": "code",
   "execution_count": 46,
   "metadata": {
    "collapsed": false
   },
   "outputs": [
    {
     "name": "stdout",
     "output_type": "stream",
     "text": [
      "0\n",
      "\n",
      "\n",
      "0\n",
      "\n",
      "\n",
      "0\n",
      "\n",
      "\n",
      "0\n",
      "\n",
      "\n",
      "0\n",
      "\n",
      "\n",
      "0\n",
      "\n",
      "\n",
      "0\n",
      "\n",
      "\n",
      "70\n",
      "\n",
      "\n",
      " 0\n",
      "\n",
      "\n",
      "0\n",
      "\n",
      "\n",
      "0\n",
      "\n",
      "\n",
      "0\n",
      "\n",
      "\n",
      "0\n",
      "\n",
      "\n",
      "0\n",
      "\n",
      "\n",
      "0\n",
      "\n",
      "\n",
      "0\n",
      "\n",
      "\n",
      "0\n",
      "\n",
      "\n",
      "70\n",
      "\n",
      "\n",
      "0\n",
      "\n",
      "\n",
      "70\n",
      "\n",
      "\n",
      "- 0\n",
      "\n",
      "\n",
      " 0\n",
      "\n",
      "\n",
      "0\n",
      "\n",
      "\n",
      "20\n",
      "\n",
      "\n",
      ".0\n",
      "\n",
      "\n",
      "11\n",
      "\n",
      "\n",
      "-9.\n",
      "\n",
      "\n",
      " 9\n",
      "\n",
      "\n",
      ".19\n",
      "\n",
      "\n",
      "0-9\n",
      "\n",
      "\n",
      "2 1\n",
      "\n",
      "\n",
      " 9.\n",
      "\n",
      "\n",
      "779\n",
      "\n",
      "\n",
      "0\n",
      "\n",
      "\n",
      " 5\n",
      "\n",
      "\n",
      " 45\n",
      "\n",
      "\n",
      " 3.\n",
      "\n",
      "\n",
      "177352\n",
      "\n",
      "\n",
      "7 2\n",
      "\n",
      "\n",
      "15.\n",
      "\n",
      "\n",
      " 5\n",
      "\n",
      "\n",
      "05\n",
      "\n",
      "\n",
      "11 \n",
      "\n",
      "\n",
      "11\n",
      "\n",
      "\n",
      "11\n",
      "\n",
      "\n",
      "11\n",
      "\n",
      "\n",
      "11\n",
      "\n",
      "\n",
      "11\n",
      "\n",
      "\n",
      "11\n",
      "\n",
      "\n",
      "11\n",
      "\n",
      "\n",
      "11\n",
      "\n",
      "\n",
      "11\n",
      "\n",
      "\n",
      "11\n",
      "\n",
      "\n",
      "11\n",
      "\n",
      "\n",
      "11\n",
      "\n",
      "\n",
      "11\n",
      "\n",
      "\n",
      "11\n",
      "\n",
      "\n",
      "11\n",
      "\n",
      "\n",
      "11\n",
      "\n",
      "\n",
      "11\n",
      "\n",
      "\n",
      "11\n",
      "\n",
      "\n",
      "11\n",
      "\n",
      "\n",
      "11\n",
      "\n",
      "\n",
      "11\n",
      "\n",
      "\n",
      "11\n",
      "\n",
      "\n",
      "11\n",
      "\n",
      "\n",
      "11\n",
      "\n",
      "\n",
      "11\n",
      "\n",
      "\n",
      "11 \n",
      "\n",
      "\n",
      "1 \n",
      "\n",
      "\n",
      "111\n",
      "\n",
      "\n",
      "11 \n",
      "\n",
      "\n",
      " 011\n",
      "\n",
      "\n",
      " 11 \n",
      "\n",
      "\n",
      "5014\n",
      "\n",
      "\n",
      ".111\n",
      "\n",
      "\n",
      ".11.\n",
      "\n",
      "\n",
      ".-31 \n",
      "\n",
      "\n",
      " 111\n",
      "\n",
      "\n",
      " 1 5\n",
      "\n",
      "\n",
      " 0 1\n",
      "\n",
      "\n",
      ".13\n",
      "\n",
      "\n",
      "3114\n",
      "\n",
      "\n",
      "111 \n",
      "\n",
      "\n",
      "1117\n",
      "\n",
      "\n",
      "315\n",
      "\n",
      "\n",
      "711 \n",
      "\n",
      "\n",
      "11-1\n",
      "\n",
      "\n",
      ".1 3\n",
      "\n",
      "\n",
      "1 1 .\n",
      "\n",
      "\n",
      "1 1 \n",
      "\n",
      "\n",
      "11 \n",
      "\n",
      "\n",
      "11 \n",
      "\n",
      "\n",
      "11-\n",
      "\n",
      "\n",
      "11\n",
      "\n",
      "\n",
      "11\n",
      "\n",
      "\n",
      "11\n",
      "\n",
      "\n",
      "11\n",
      "\n",
      "\n",
      "11\n",
      "\n",
      "\n",
      "11\n",
      "\n",
      "\n",
      "11\n",
      "\n",
      "\n",
      "11\n",
      "\n",
      "\n",
      "11\n",
      "\n",
      "\n",
      "11\n",
      "\n",
      "\n",
      "11\n",
      "\n",
      "\n",
      "11\n",
      "\n",
      "\n",
      "11\n",
      "\n",
      "\n",
      "11\n",
      "\n",
      "\n",
      "11\n",
      "\n",
      "\n",
      "11\n",
      "\n",
      "\n",
      "11\n",
      "\n",
      "\n",
      "11\n",
      "\n",
      "\n",
      "11\n",
      "\n",
      "\n",
      "11\n",
      "\n",
      "\n",
      "11\n",
      "\n",
      "\n",
      "11\n",
      "\n",
      "\n",
      "11\n",
      "\n",
      "\n",
      "11\n",
      "\n",
      "\n",
      "11\n",
      "\n",
      "\n",
      "11\n",
      "\n",
      "\n",
      "11\n",
      "\n",
      "\n",
      "11\n",
      "\n",
      "\n",
      "11\n",
      "\n",
      "\n",
      "11\n",
      "\n",
      "\n",
      "11\n",
      "\n",
      "\n",
      "11\n",
      "\n",
      "\n",
      "11\n",
      "\n",
      "\n",
      "11\n",
      "\n",
      "\n",
      "11\n",
      "\n",
      "\n",
      "11\n",
      "\n",
      "\n",
      "11\n",
      "\n",
      "\n",
      "11\n",
      "\n",
      "\n",
      "11\n",
      "\n",
      "\n",
      "11\n",
      "\n",
      "\n",
      "11\n",
      "\n",
      "\n",
      "11\n",
      "\n",
      "\n",
      "11\n",
      "\n",
      "\n",
      "11\n",
      "\n",
      "\n",
      "11\n",
      "\n",
      "\n",
      "11\n",
      "\n",
      "\n",
      "11\n",
      "\n",
      "\n",
      "11\n",
      "\n",
      "\n",
      "11\n",
      "\n",
      "\n",
      "11\n",
      "\n",
      "\n",
      "11\n",
      "\n",
      "\n",
      "11\n",
      "\n",
      "\n",
      "11\n",
      "\n",
      "\n",
      "11\n",
      "\n",
      "\n",
      "11\n",
      "\n",
      "\n",
      "11\n",
      "\n",
      "\n",
      "11\n",
      "\n",
      "\n",
      "11\n",
      "\n",
      "\n",
      "11\n",
      "\n",
      "\n",
      "11\n",
      "\n",
      "\n",
      "11\n",
      "\n",
      "\n",
      "11\n",
      "\n",
      "\n",
      "11\n",
      "\n",
      "\n",
      "11\n",
      "\n",
      "\n",
      "11\n",
      "\n",
      "\n",
      "11\n",
      "\n",
      "\n",
      "11\n",
      "\n",
      "\n",
      "11 \n",
      "\n",
      "\n",
      "11\n",
      "\n",
      "\n",
      "11\n",
      "\n",
      "\n",
      "11\n",
      "\n",
      "\n",
      "11\n",
      "\n",
      "\n",
      "11\n",
      "\n",
      "\n",
      "11\n",
      "\n",
      "\n",
      "11\n",
      "\n",
      "\n",
      "11\n",
      "\n",
      "\n",
      "11\n",
      "\n",
      "\n",
      "11\n",
      "\n",
      "\n",
      "11\n",
      "\n",
      "\n",
      "11\n",
      "\n",
      "\n",
      "11\n",
      "\n",
      "\n",
      "11\n",
      "\n",
      "\n",
      "11\n",
      "\n",
      "\n",
      "11\n",
      "\n",
      "\n"
     ]
    }
   ],
   "source": [
    "IMG_FILENAME = \"ocr.png\"\n",
    "frame_percents = []\n",
    "for i in range(int(video_nb_frames)):\n",
    "    success,image = vidcap.read()\n",
    "    image = cv2.threshold(image, 127, 255, cv2.THRESH_BINARY)[1]\n",
    "    kernel = np.ones((3,3),np.uint8)\n",
    "    image = cv2.erode(image,kernel)\n",
    "    \n",
    "    # Save image\n",
    "    Image.fromarray(image).save(IMG_FILENAME)\n",
    "    output = subprocess.check_output(\"tesseract \"+IMG_FILENAME+\" stdout -l eng -psm 8 digits\", shell=1)\n",
    "    frame_percents.append(output)\n",
    "    print output\n",
    "    "
   ]
  },
  {
   "cell_type": "code",
   "execution_count": 52,
   "metadata": {
    "collapsed": false
   },
   "outputs": [
    {
     "data": {
      "text/plain": [
       "['0',\n",
       " '0',\n",
       " '0',\n",
       " '0',\n",
       " '0',\n",
       " '0',\n",
       " '0',\n",
       " '70',\n",
       " '0',\n",
       " '0',\n",
       " '0',\n",
       " '0',\n",
       " '0',\n",
       " '0',\n",
       " '0',\n",
       " '0',\n",
       " '0',\n",
       " '70',\n",
       " '0',\n",
       " '70',\n",
       " '- 0',\n",
       " '0',\n",
       " '0',\n",
       " '20',\n",
       " '.0',\n",
       " '11',\n",
       " '-9.',\n",
       " '9',\n",
       " '.19',\n",
       " '0-9',\n",
       " '2 1',\n",
       " '9.',\n",
       " '779',\n",
       " '0',\n",
       " '5',\n",
       " '45',\n",
       " '3.',\n",
       " '177352',\n",
       " '7 2',\n",
       " '15.',\n",
       " '5',\n",
       " '05',\n",
       " '11',\n",
       " '11',\n",
       " '11',\n",
       " '11',\n",
       " '11',\n",
       " '11',\n",
       " '11',\n",
       " '11',\n",
       " '11',\n",
       " '11',\n",
       " '11',\n",
       " '11',\n",
       " '11',\n",
       " '11',\n",
       " '11',\n",
       " '11',\n",
       " '11',\n",
       " '11',\n",
       " '11',\n",
       " '11',\n",
       " '11',\n",
       " '11',\n",
       " '11',\n",
       " '11',\n",
       " '11',\n",
       " '11',\n",
       " '11',\n",
       " '1',\n",
       " '111',\n",
       " '11',\n",
       " '011',\n",
       " '11',\n",
       " '5014',\n",
       " '.111',\n",
       " '.11.',\n",
       " '.-31',\n",
       " '111',\n",
       " '1 5',\n",
       " '0 1',\n",
       " '.13',\n",
       " '3114',\n",
       " '111',\n",
       " '1117',\n",
       " '315',\n",
       " '711',\n",
       " '11-1',\n",
       " '.1 3',\n",
       " '1 1 .',\n",
       " '1 1',\n",
       " '11',\n",
       " '11',\n",
       " '11-',\n",
       " '11',\n",
       " '11',\n",
       " '11',\n",
       " '11',\n",
       " '11',\n",
       " '11',\n",
       " '11',\n",
       " '11',\n",
       " '11',\n",
       " '11',\n",
       " '11',\n",
       " '11',\n",
       " '11',\n",
       " '11',\n",
       " '11',\n",
       " '11',\n",
       " '11',\n",
       " '11',\n",
       " '11',\n",
       " '11',\n",
       " '11',\n",
       " '11',\n",
       " '11',\n",
       " '11',\n",
       " '11',\n",
       " '11',\n",
       " '11',\n",
       " '11',\n",
       " '11',\n",
       " '11',\n",
       " '11',\n",
       " '11',\n",
       " '11',\n",
       " '11',\n",
       " '11',\n",
       " '11',\n",
       " '11',\n",
       " '11',\n",
       " '11',\n",
       " '11',\n",
       " '11',\n",
       " '11',\n",
       " '11',\n",
       " '11',\n",
       " '11',\n",
       " '11',\n",
       " '11',\n",
       " '11',\n",
       " '11',\n",
       " '11',\n",
       " '11',\n",
       " '11',\n",
       " '11',\n",
       " '11',\n",
       " '11',\n",
       " '11',\n",
       " '11',\n",
       " '11',\n",
       " '11',\n",
       " '11',\n",
       " '11',\n",
       " '11',\n",
       " '11',\n",
       " '11',\n",
       " '11',\n",
       " '11',\n",
       " '11',\n",
       " '11',\n",
       " '11',\n",
       " '11',\n",
       " '11',\n",
       " '11',\n",
       " '11',\n",
       " '11',\n",
       " '11',\n",
       " '11',\n",
       " '11',\n",
       " '11',\n",
       " '11',\n",
       " '11',\n",
       " '11',\n",
       " '11',\n",
       " '11',\n",
       " '11']"
      ]
     },
     "execution_count": 52,
     "metadata": {},
     "output_type": "execute_result"
    }
   ],
   "source": [
    "frame_percents"
   ]
  },
  {
   "cell_type": "code",
   "execution_count": 225,
   "metadata": {
    "collapsed": false
   },
   "outputs": [
    {
     "name": "stderr",
     "output_type": "stream",
     "text": [
      "UsageError: %%latex is a cell magic, but the cell body is empty."
     ]
    }
   ],
   "source": [
    "%%latex"
   ]
  },
  {
   "cell_type": "code",
   "execution_count": null,
   "metadata": {
    "collapsed": true
   },
   "outputs": [],
   "source": []
  }
 ],
 "metadata": {
  "kernelspec": {
   "display_name": "Python 2",
   "language": "python",
   "name": "python2"
  },
  "language_info": {
   "codemirror_mode": {
    "name": "ipython",
    "version": 2
   },
   "file_extension": ".py",
   "mimetype": "text/x-python",
   "name": "python",
   "nbconvert_exporter": "python",
   "pygments_lexer": "ipython2",
   "version": "2.7.11"
  }
 },
 "nbformat": 4,
 "nbformat_minor": 0
}
